<svg width="242" height="373" viewBox="0 0 242 373" fill="none" xmlns="http://www.w3.org/2000/svg">
<path d="M184.302 141.007L231.528 46.6314L222.196 40.5163L167.76 129.563C166.118 132.232 162.599 133.022 159.971 131.304L158.195 130.135C155.63 128.451 154.915 125.014 156.593 122.446L213.744 34.985L205.538 29.6566L147.994 117.719C146.316 120.287 142.871 121.015 140.297 119.333C137.729 117.655 137.002 114.21 138.684 111.636L196.236 23.5614L187.195 17.6708L129.623 105.724C127.945 108.292 124.504 109.013 121.93 107.331L120.397 106.329C117.769 104.612 117.086 101.059 118.884 98.4922L179.342 12.4967L170.826 6.93215L106.07 83.4166C106.07 83.4166 103.77 86.3848 102.992 87.5756C94.602 100.415 94.2166 115.465 97.4767 129.335C100.183 140.836 103.865 149.936 99.6741 161.512C91.2121 179.531 70.4083 199.312 58.2497 214.478C15.3281 268.002 -25.9136 335.831 -25.9136 335.831L-25.8775 335.855C-25.9563 335.949 -26.055 336.048 -26.1297 336.162C-31.9104 345.008 -28.2966 357.694 -19.4537 363.507C-19.4537 363.507 -19.4176 363.53 -19.3154 363.597C-10.4448 369.393 2.82457 367.723 8.61315 358.864C8.68781 358.75 8.75041 358.628 8.79315 358.51L8.82925 358.534C8.82925 358.534 64.9156 272.307 86.1727 232.724C95.1253 216.055 104.513 189.973 117.038 174.746C126.118 167.549 138.053 165.333 149.102 162.804C162.401 159.762 174.099 154.954 182.545 143.618C183.094 142.895 184.302 141.007 184.302 141.007Z" fill="#D0DCD9"/>
<path d="M-56.234 166.531C-19.1062 134.738 38.9478 143.282 55.3103 193.466C62.1059 214.335 58.1398 237.558 67.1674 257.927C78.2765 282.989 103.693 297.872 128.724 281.758C137.546 276.067 129.762 261.685 120.83 267.376C75.4156 296.34 77.6021 209.03 70.9194 188.453C65.0989 170.531 53.8236 155.394 38.3931 144.681C4.94016 121.468 -36.0706 127.63 -65.9026 153.289C-73.8661 160.134 -64.2631 173.409 -56.234 166.531Z" fill="#FE9F6B"/>
</svg>
