<svg width="268" height="339" viewBox="0 0 268 339" fill="none" xmlns="http://www.w3.org/2000/svg">
<path d="M283.393 13.5905C283.393 13.5905 214.358 82.6257 205.386 91.6529C197.145 99.8388 0.278842 297.225 0.278842 297.225L0.26212 297.242C0.26212 297.242 62.1685 317.726 215.719 164.153C189.961 118.402 231.051 110.964 246.255 104.172C271.128 93.0587 310.087 40.2072 310.087 40.2072L309.982 40.1352C310.098 40.0743 310.192 40.0355 310.292 39.9248C317.708 32.5857 317.709 20.6197 310.303 13.3249C302.992 5.98024 290.992 5.96899 283.692 13.3247C283.598 13.3634 283.487 13.4742 283.493 13.5682L283.393 13.5905Z" fill="#D0DCD9"/>
<path d="M101.598 160.566C128.375 149.35 130.105 193.107 137.276 205.763C141.055 212.427 146.484 219.302 153.982 222.007C180.084 231.432 220.778 179.861 230.572 222.962C235.473 244.544 229.388 266.841 249.352 282.897C263.004 293.88 279.952 293.704 293.498 283.502C298.944 279.398 292.063 271.322 286.662 275.443C265.598 291.529 247.675 264.176 243.014 247.76C240.681 239.547 241.953 231.391 241.148 223.112C240.412 215.523 239.542 209.143 234.649 202.987C224.93 190.759 207.658 190.017 194.207 195.659C190.925 197.032 188.063 199.331 184.889 200.867C176.384 204.979 159.404 210.685 149.954 205.914C141.435 201.618 138.896 170.694 132.858 161.944C124.598 149.975 111.95 144.789 98.4827 150.469C92.2614 153.089 95.3107 163.197 101.598 160.566Z" fill="#49AC9B"/>
</svg>
