<svg width="20" height="21" viewBox="0 0 20 21" fill="none" xmlns="http://www.w3.org/2000/svg">
<path fill-rule="evenodd" clip-rule="evenodd" d="M3.33561 9.31778C3.33561 6.08363 5.96728 3.4528 9.20141 3.4528C12.4347 3.4528 15.0664 6.08363 15.0664 9.31778C15.0664 12.5519 12.4347 15.1836 9.20141 15.1836C5.96728 15.1836 3.33561 12.5519 3.33561 9.31778ZM18.7481 18.0336L14.9156 14.2111C16.0456 12.8936 16.7331 11.1861 16.7331 9.31778C16.7331 5.1653 13.3539 1.78613 9.20141 1.78613C5.04811 1.78613 1.66895 5.1653 1.66895 9.31778C1.66895 13.4711 5.04811 16.8503 9.20141 16.8503C10.8864 16.8503 12.4389 16.2869 13.6947 15.3478L17.5714 19.2136L18.7481 18.0336Z" fill="#163A34"/>
</svg>
